<svg width="28" height="21" viewBox="0 0 28 21" fill="none" xmlns="http://www.w3.org/2000/svg">
<path d="M25.375 0C26.7969 0 28 1.20312 28 2.625C28 3.5 27.5625 4.26562 26.9062 4.75781L15.0391 13.6719C14.3828 14.1641 13.5625 14.1641 12.9062 13.6719L1.03906 4.75781C0.382812 4.26562 0 3.5 0 2.625C0 1.20312 1.14844 0 2.625 0H25.375ZM11.8672 15.0938C13.125 16.0234 14.8203 16.0234 16.0781 15.0938L28 6.125V17.5C28 19.4688 26.4141 21 24.5 21H3.5C1.53125 21 0 19.4688 0 17.5V6.125L11.8672 15.0938Z" fill="white"/>
</svg>
