<svg width="277" height="75" viewBox="0 0 277 75" fill="none" xmlns="http://www.w3.org/2000/svg">
<path d="M124.186 60.1373C124.186 52.3116 130.539 45.9586 138.365 45.9586C146.191 45.9586 152.544 52.3116 152.544 60.1373C152.544 67.963 146.191 74.3159 138.365 74.3159C130.539 74.3159 124.186 67.963 124.186 60.1373Z" fill="url(#paint0_linear_54_415)" fill-opacity="0.25"/>
<path d="M101.336 20.956L128.097 20.956L128.097 0.000282288L-6.49688e-06 0.000293486L-4.66488e-06 20.956L26.7605 20.956L26.7605 47.6502L53.521 47.6502L53.521 74.3159L74.5757 74.3159L74.5757 47.6502L101.336 47.6502L101.336 20.956Z" fill="url(#paint1_linear_54_415)" fill-opacity="0.25"/>
<path d="M249.968 20.956L276.728 20.956L276.728 0.000282288L148.631 0.000293486L148.631 20.956L175.392 20.956L175.392 47.6502L202.152 47.6502L202.152 74.3159L223.207 74.3159L223.207 47.6502L249.968 47.6502L249.968 20.956Z" fill="url(#paint2_linear_54_415)" fill-opacity="0.25"/>
<defs>
<linearGradient id="paint0_linear_54_415" x1="132.754" y1="108.643" x2="184.197" y2="88.3614" gradientUnits="userSpaceOnUse">
<stop stop-color="#076D38"/>
<stop offset="1" stop-color="#FBFBFB" stop-opacity="0"/>
</linearGradient>
<linearGradient id="paint1_linear_54_415" x1="38.7006" y1="164.277" x2="222.377" y2="39.4557" gradientUnits="userSpaceOnUse">
<stop stop-color="#076D38"/>
<stop offset="1" stop-color="#FBFBFB" stop-opacity="0"/>
</linearGradient>
<linearGradient id="paint2_linear_54_415" x1="187.332" y1="164.277" x2="371.008" y2="39.4557" gradientUnits="userSpaceOnUse">
<stop stop-color="#076D38"/>
<stop offset="1" stop-color="#FBFBFB" stop-opacity="0"/>
</linearGradient>
</defs>
</svg>
