<svg width="68" height="68" viewBox="0 0 68 68" fill="none" xmlns="http://www.w3.org/2000/svg">
<g clip-path="url(#clip0_54_125)">
<path d="M33.9945 68C24.9259 68 16.3954 64.4558 9.96705 58.0274C3.53866 51.599 0 43.063 0 33.9945C0 15.2473 15.2529 0 33.9945 0C43.063 0 51.599 3.54421 58.0274 9.97259C64.4558 16.401 67.9944 24.937 67.9944 34C67.9944 43.0685 64.4502 51.6046 58.0219 58.033C51.5935 64.4558 43.0574 67.9945 33.9945 68ZM33.9945 0.432626C15.4914 0.432626 0.432626 15.4858 0.432626 33.9945C0.432626 42.9465 3.92692 51.3772 10.2721 57.7224C16.6173 64.0675 25.0424 67.5674 33.9945 67.5674C42.9465 67.5674 51.3716 64.0731 57.7168 57.7279C64.0675 51.3827 67.5618 42.952 67.5674 34C67.5674 25.048 64.0731 16.6228 57.7223 10.2777C51.3827 3.92692 42.952 0.432626 34 0.432626H33.9945Z" fill="white"/>
<path d="M34.0054 1.74683C16.19 1.74128 1.74695 16.1788 1.74695 33.9941C1.74695 51.8095 16.1845 66.247 33.9943 66.2525C51.8096 66.2525 66.2471 51.815 66.2527 34.0052C66.2527 16.1899 51.8151 1.75237 34.0054 1.74683ZM33.9776 43.0016C22.6572 43.0016 13.4833 33.8222 13.4833 22.5018C13.4833 11.1814 22.6628 2.00197 33.9832 2.00751C45.3036 2.00751 54.4775 11.187 54.4775 22.5074C54.4775 33.8277 45.298 43.0016 33.9776 43.0016Z" fill="white"/>
<path d="M34 66.3518C25.3586 66.3518 17.233 62.9851 11.1207 56.8728C5.00851 50.7606 1.64734 42.635 1.64734 33.9936C1.64734 16.156 16.1625 1.64087 34 1.64087C51.8431 1.64087 66.3527 16.1616 66.3527 33.9991C66.3527 51.8366 51.8375 66.3518 33.9945 66.3518M33.9945 1.84609C16.2734 1.84609 1.85256 16.267 1.84701 33.9936C1.84701 42.5795 5.186 50.6552 11.2594 56.7286C17.3328 62.802 25.403 66.1466 33.9945 66.1466C51.7211 66.1466 66.142 51.7257 66.1475 33.9991C66.1475 16.2725 51.7266 1.84609 34 1.84054L33.9945 1.84609ZM33.9723 43.1009C22.6131 43.1009 13.3726 33.8604 13.3782 22.5012C13.3782 16.9991 15.5247 11.8242 19.4128 7.93614C23.3008 4.04805 28.4757 1.9071 33.9778 1.9071C39.48 1.9071 44.6548 4.05359 48.5429 7.94168C52.431 11.8353 54.572 17.0047 54.572 22.5068C54.572 33.866 45.3315 43.1009 33.9723 43.1009ZM33.9723 42.8957C45.2206 42.8957 54.3667 33.7495 54.3667 22.5012C54.3667 17.0546 52.248 11.9296 48.3932 8.08035C44.5439 4.22553 39.4189 2.10677 33.9723 2.10677C28.5256 2.10677 23.4062 4.22553 19.5514 8.08035C15.6966 11.9296 13.5778 17.0546 13.5778 22.5012C13.5778 33.744 22.724 42.8957 33.9723 42.8957Z" fill="white"/>
<path d="M46.2788 42.7257C46.2788 42.7257 48.026 43.186 49.8619 42.1599C49.8619 42.1599 49.8508 42.9919 50.0393 43.1971C50.178 43.3524 56.8282 49.6255 56.8282 49.6255L55.4749 51.3948L46.2844 42.8366C46.2844 42.8366 46.1845 42.7035 46.2844 42.7257" fill="#076D38"/>
<path d="M45.7473 44.2104C45.7473 44.2104 46.1079 46.063 45.3535 47.8489L46.2853 47.9488L48.8866 50.306C48.8866 50.306 46.8067 52.153 45.2315 53.0405C45.2315 53.0405 45.0984 53.1403 45.0485 53.0405C44.9986 52.9406 43.2126 50.2395 43.2126 50.2395C43.2126 50.2395 42.9353 52.63 42.1144 53.5175V53.7449C42.1144 53.7449 42.4583 53.7282 42.7189 53.8447C42.9796 53.9612 43.0462 54.0555 43.0462 54.0555L44.8987 56.9397C44.8987 56.9397 44.9764 57.8215 44.8654 58.1488C44.749 58.476 44.6048 59.1638 42.963 59.5576C42.963 59.5576 42.8299 60.0512 44.699 59.9181C46.5294 59.7905 47.5721 57.8548 47.1173 56.0356C47.1118 55.9967 47.1007 55.9635 47.0896 55.9246C47.0896 55.9246 51.3327 53.2512 52.93 51.1158C52.9411 51.0992 52.9522 51.0881 52.9633 51.0715C52.9633 51.0715 46.3852 44.6486 45.7307 44.216" fill="#076D38"/>
<path d="M39.4413 51.0438C39.4413 51.0438 39.5744 51.0216 39.5966 51.1991C39.6187 51.371 41.9094 58.3152 41.9094 58.3152C41.9094 58.3152 34.1055 61.5045 24.7042 57.866L28.4814 46.3071C28.4814 46.3071 28.5369 46.2627 28.5369 46.3071C28.5369 46.3514 29.2801 48.4258 30.5225 49.2134L30.5114 49.3355C30.5114 49.3355 29.868 49.402 29.6073 50.2063C29.3466 51.016 27.9933 55.0705 27.9933 55.1981C27.9933 55.3257 28.2373 55.3312 28.3705 55.3645C28.5036 55.3978 30.528 56.0023 33.3068 56.0523C36.0856 56.1022 38.5926 55.6141 38.5926 55.6141C38.5926 55.6141 38.5427 54.5325 37.4944 54.1054L37.4279 53.9446C37.4279 53.9446 39.0807 52.924 39.4413 51.0493" fill="#076D38"/>
<path d="M23.7887 49.03C21.0155 48.8525 19.2461 49.9451 19.2461 49.9451C19.5678 49.1686 19.5456 47.6877 19.5456 47.6877C18.2866 48.5197 17.1218 48.3089 16.7114 48.2257C16.3009 48.1425 16.4951 48.4254 16.4951 48.4254C16.5062 48.4476 16.5173 48.4698 16.5228 48.4919C17.5544 50.8658 15.1972 51.2097 15.1972 51.2097C13.2005 51.0101 13.5111 49.3073 13.5277 49.1132C13.5443 48.919 13.8383 47.3937 16.4396 46.7725C19.0465 46.1513 18.4696 46.168 18.5695 46.0848C18.6693 46.0016 19.0742 45.6078 18.9133 45.3804C18.7469 45.153 18.4363 45.3804 18.4363 45.3804C18.3531 45.4136 18.0592 45.4636 18.0592 45.4636C15.2582 45.8906 14.4983 46.2789 14.4983 46.2789C11.2204 48.026 11.9858 50.888 11.9858 50.888C13.1838 55.2809 16.961 53.0456 16.961 53.0456C19.7342 55.8854 23.6611 57.3053 23.6611 57.3053C23.6611 57.3053 25.5636 51.4981 25.6024 51.3262C25.6468 51.1487 26.5398 49.2074 23.7665 49.0355M23.0455 51.6534C22.8902 52.2192 22.7404 52.8848 22.5851 52.9458L20.1391 51.1931C20.1391 51.1931 21.3427 50.7549 22.5851 50.9324C22.5851 50.9324 23.1952 51.0877 23.0455 51.6534Z" fill="#076D38"/>
<path d="M21.9307 46.4788C21.9307 45.73 22.5408 45.1199 23.2896 45.1199C24.0383 45.1199 24.6429 45.73 24.6429 46.4788C24.6429 47.2275 24.0328 47.8321 23.2896 47.8321C22.5463 47.8321 21.9362 47.222 21.9362 46.4788" fill="#076D38"/>
<path d="M30.3115 61.6107C30.3115 60.8619 30.9216 60.2573 31.6649 60.2573C32.4081 60.2573 33.0238 60.8619 33.0238 61.6107C33.0238 62.3594 32.4136 62.9696 31.6649 62.9696C30.9161 62.9696 30.3115 62.3594 30.3115 61.6107Z" fill="#076D38"/>
<path d="M34.9647 61.5443C34.9647 60.7955 35.5748 60.1909 36.318 60.1909C37.0612 60.1909 37.6713 60.801 37.6713 61.5443C37.6713 62.2875 37.0612 62.8976 36.3125 62.8976C35.5637 62.8976 34.9591 62.2875 34.9591 61.5443" fill="#076D38"/>
<path d="M45.4706 30.0228L47.1678 23.1174C47.1678 23.1174 47.7225 22.7014 49.2422 22.7014C50.6344 22.7014 51.3332 23.0841 51.3332 23.0841L52.3981 27.965C52.3981 27.965 51.0892 31.9141 49.5972 33.7278C48.4546 35.12 45.4706 30.0172 45.4706 30.0172" fill="white"/>
<path d="M49.1144 34.0212C47.7666 34.0212 45.5258 30.2107 45.426 30.0444L45.4149 30.0277L47.1232 23.0891L47.1343 23.078C47.1343 23.078 47.7167 22.6509 49.242 22.6509C50.6342 22.6509 51.3275 23.028 51.3552 23.0447L51.3774 23.0558L52.4479 27.97V27.9811C52.4312 28.0199 51.1112 31.9579 49.6358 33.7605C49.4971 33.9324 49.3197 34.0212 49.1144 34.0212ZM45.5258 30.0166C45.6922 30.2995 47.872 33.9269 49.1144 33.9269C49.2919 33.9269 49.4361 33.8548 49.5581 33.705C50.9836 31.9634 52.2648 28.214 52.348 27.97L51.2887 23.1279C51.1722 23.0669 50.4844 22.7563 49.2475 22.7563C47.8887 22.7563 47.3063 23.0946 47.212 23.1556L45.5258 30.0222V30.0166Z" fill="#076D38"/>
<path d="M51.5159 22.9395C51.5159 22.9395 50.5397 22.4902 49.2418 22.4902C47.9439 22.4902 46.9844 22.9395 46.9844 22.9395L47.1785 23.0948C47.1785 23.0948 47.9217 22.701 49.2529 22.701C50.5841 22.701 51.3273 23.0671 51.3273 23.0671L51.5159 22.9395Z" fill="#076D38"/>
<path d="M51.4499 22.8621L50.873 20.1499H50.751V20.3828H50.6456V20.4716H50.568V20.4438H50.4681V20.3107L50.4127 20.2608H50.335V20.0057H50.2185V20.222H50.1298L50.0799 20.2719V20.3551H49.9911V20.3218H49.9412V20.2053L49.8913 20.1554H49.8247V19.9058H49.6916V20.1443L49.5751 20.1943V20.2941H49.4087V20.1721L49.3588 20.1221H49.2923V19.8726H49.1647V20.1277H49.0981L49.0316 20.1943V20.283H48.8874V20.161L48.8485 20.1221H48.7653V19.9058H48.6433V20.1499H48.5768L48.5158 20.2109V20.2941H48.4215V20.3385H48.3494V20.2553L48.305 20.2109H48.2273V19.9946H48.1164V20.2497H48.0498L47.9888 20.3107V20.4383H47.8945V20.4605H47.8391V20.3662H47.7115V20.1443H47.5784L47.0293 22.8566C47.0293 22.8566 47.8724 22.485 49.2146 22.485C50.5624 22.485 51.4277 22.8566 51.4277 22.8566" fill="white"/>
<path d="M46.9847 22.9451L47.5559 20.0942H47.7778V20.3161H47.8998V20.3882H47.9553V20.2883L48.044 20.1996H48.0773V19.9445H48.2881V20.1608H48.338L48.4101 20.2329H48.4711V20.1885L48.5654 20.0942H48.5987V19.8502H48.8205V20.0665H48.876L48.9426 20.133V20.2273H48.9869V20.1663L49.0812 20.072H49.1201V19.8169H49.3419V20.0665H49.3807L49.4584 20.1441V20.2329H49.525V20.1497L49.6414 20.0998V19.8446H49.8744V20.0942H49.9132L49.9909 20.1719V20.2606H50.0297V20.2329L50.1073 20.1552H50.1683V19.9389H50.3847V20.1941H50.4346L50.5122 20.2773V20.3826H50.5899V20.3216H50.6953V20.0887H50.906L51.505 22.934L51.4163 22.8952C51.4163 22.8952 50.54 22.5291 49.2199 22.5291C47.8998 22.5291 47.0623 22.8897 47.0512 22.8952L46.968 22.934L46.9847 22.9451ZM47.6391 20.1941L47.1178 22.7787C47.3674 22.6844 48.1383 22.4348 49.2365 22.4348C50.3347 22.4348 51.1279 22.6844 51.383 22.7787L50.8395 20.1941H50.8062V20.427H50.7008V20.5158H50.5233V20.488H50.4235V20.3272L50.4013 20.305H50.2959V20.0498H50.2793V20.2662H50.1628L50.1406 20.2883V20.4048H49.952V20.3715H49.9021V20.2273L49.8799 20.2051H49.7801V19.9556H49.7468V20.1774L49.6303 20.2273V20.3438H49.3697V20.1941L49.3475 20.1719H49.2532V19.9223H49.2254V20.183H49.1256L49.0868 20.2218V20.3383H48.8483V20.1885L48.8372 20.1774H48.7207V19.9611H48.693V20.2051H48.5987L48.5654 20.2384V20.3494H48.4711V20.3937H48.3047V20.2828L48.2936 20.2662H48.1882V20.0498H48.1716V20.305H48.0773L48.0496 20.3383V20.4936H47.9553V20.5158H47.8V20.4215H47.6724V20.1996H47.6281L47.6391 20.1941Z" fill="#076D38"/>
<path d="M49.4915 22.0361H48.9923V22.4909H49.4915V22.0361Z" fill="white"/>
<path d="M49.5415 22.5405H48.9425V21.9858H49.5415V22.5405ZM49.0423 22.4407H49.4417V22.0801H49.0423V22.4407Z" fill="#076D38"/>
<path d="M22.2694 30.0225L20.5721 23.1172C20.5721 23.1172 20.0175 22.7012 18.4978 22.7012C17.1056 22.7012 16.4067 23.0839 16.4067 23.0839L15.3418 27.9648C15.3418 27.9648 16.6508 31.9139 18.1372 33.7276C19.2798 35.1198 22.2694 30.0225 22.2694 30.0225Z" fill="white"/>
<path d="M18.619 34.017C18.4138 34.017 18.2363 33.9283 18.0977 33.7564C16.6223 31.9537 15.3022 28.0157 15.2911 27.9769V27.9658L16.3616 23.0516L16.3838 23.0405C16.4115 23.0239 17.1048 22.6467 18.497 22.6467C20.0223 22.6467 20.5825 23.0572 20.6047 23.0738L20.6213 23.0849V23.1015L22.3241 30.0236L22.313 30.0402C22.2187 30.201 19.9724 34.0115 18.6246 34.0115M15.391 27.9547C15.4742 28.2043 16.7554 31.9537 18.1753 33.6898C18.2973 33.8395 18.4415 33.9117 18.619 33.9117C19.867 33.9117 22.0468 30.2842 22.2132 30.0069L20.527 23.1404C20.4327 23.0794 19.8504 22.741 18.497 22.741C17.2601 22.741 16.5668 23.0516 16.4504 23.1126L15.391 27.9547Z" fill="#076D38"/>
<path d="M16.2235 22.9395C16.2235 22.9395 17.1997 22.4902 18.4976 22.4902C19.7955 22.4902 20.7605 22.9395 20.7605 22.9395L20.5664 23.0948C20.5664 23.0948 19.8232 22.701 18.492 22.701C17.1609 22.701 16.4176 23.0671 16.4176 23.0671L16.2291 22.9395H16.2235Z" fill="#076D38"/>
<path d="M16.2899 22.8567L16.8668 20.1445H16.9888V20.3775H17.0942V20.4662H17.1718V20.4385H17.2716V20.3054L17.3271 20.2499H17.4048V19.9948H17.5212V20.2111H17.61L17.6599 20.261V20.3442H17.7486V20.3109H17.7986V20.2L17.8485 20.1501H17.9206V19.9005H18.0537V20.139L18.1702 20.1889V20.2887H18.331V20.1667L18.3809 20.1168H18.4475V19.8672H18.5751V20.1223H18.6416L18.7082 20.1889V20.2776H18.8524V20.1556L18.8912 20.1168H18.9744V19.9005H19.0964V20.1445H19.1575L19.2185 20.2055V20.2887H19.3128V20.3331H19.3849V20.2499L19.4292 20.2055H19.5069V19.9892H19.6234V20.2443H19.6899L19.7509 20.3054V20.4329H19.8452V20.4551H19.9007V20.3608H20.0283V20.139H20.1614L20.7105 22.8512C20.7105 22.8512 19.8674 22.4796 18.5252 22.4796C17.1829 22.4796 16.3121 22.8512 16.3121 22.8512" fill="white"/>
<path d="M20.7545 22.9449L20.6657 22.9061C20.6657 22.9061 19.8171 22.54 18.4971 22.54C17.177 22.54 16.3118 22.9061 16.3007 22.9061L16.2119 22.9449L16.8165 20.0996H17.0272V20.3325H17.1326V20.3936H17.2103V20.2882L17.2879 20.205H17.3379V19.9498H17.5542V20.1661H17.6152L17.6928 20.2438V20.2715H17.7372V20.1828L17.8149 20.1051H17.8537V19.8555H18.0866V20.1051L18.2031 20.1551V20.2383H18.2697V20.1495L18.3473 20.0719H18.3861V19.8223H18.6135V20.0774H18.6524L18.7522 20.1717V20.2327H18.7966V20.1384L18.8631 20.0719H18.9186V19.8555H19.1405V20.0996H19.1737L19.268 20.1939V20.2438H19.329L19.4011 20.1661H19.4511V19.9498H19.6618V20.205H19.6951L19.7839 20.2937V20.3936H19.8338V20.3214H19.9613V20.0996H20.1832L20.7545 22.9505V22.9449ZM18.5026 22.4402C19.6008 22.4402 20.3718 22.6898 20.6214 22.7841L20.1 20.1994H20.0556V20.4213H19.9336V20.5156H19.7783V20.4934H19.684V20.3381L19.6563 20.3048H19.562V20.0497H19.5454V20.266H19.44L19.4289 20.2826V20.3936H19.2625V20.3492H19.1682V20.2383L19.1349 20.205H19.0462V19.9609H19.0184V20.1772H18.902V20.3381H18.6524V20.2216L18.6135 20.1828H18.5193V19.9221H18.4915V20.1717H18.3972L18.375 20.1939V20.3436H18.1144V20.2272L17.9979 20.1772V19.9609H17.9646V20.2105H17.8648L17.8426 20.2327V20.3769H17.7927V20.4102H17.6041V20.2937L17.5819 20.2715H17.4654V20.0552H17.4488V20.3104H17.3434L17.3212 20.3325V20.4934H17.2214V20.5211H17.0494V20.4324H16.9441V20.1994H16.9108L16.3617 22.7841C16.6168 22.6953 17.41 22.4458 18.5082 22.4458" fill="#076D38"/>
<path d="M18.7414 22.0308H18.2422V22.4856H18.7414V22.0308Z" fill="white"/>
<path d="M18.7914 22.5351H18.1924V21.9805H18.7914V22.5351ZM18.2922 22.4353H18.6916V22.0748H18.2922V22.4353Z" fill="#076D38"/>
<path d="M41.3326 20.7551L26.6011 20.8993L18.7029 25.1036L17.9153 32.8742C17.9153 32.8742 21.7257 41.621 34.9874 41.7819" fill="white"/>
<path d="M34.9874 41.8808C28.1042 41.7976 23.8112 39.3682 21.4151 37.3438C18.8193 35.1474 17.8376 32.9343 17.8265 32.9121L17.8154 32.8899V32.8677L18.6086 25.0416L26.5733 20.8041H26.5955L41.327 20.6599V20.854L26.6233 20.9982L18.7916 25.1637L18.0096 32.8567C18.1205 33.0951 19.1189 35.1529 21.5427 37.1996C23.911 39.1963 28.1652 41.6035 34.9818 41.6867V41.8808H34.9874Z" fill="#076D38"/>
<path d="M34.9875 41.7874C34.9875 41.7874 44.6163 41.7874 50.1406 32.9685L49.2698 25.0648L41.3327 20.7551" fill="white"/>
<path d="M34.9875 41.8804V41.6863C34.9875 41.6863 37.4169 41.6752 40.4675 40.5881C43.2685 39.5897 47.2009 37.4543 50.0407 32.945L49.1755 25.1245L41.2884 20.8426L41.3827 20.6707L49.3641 25.0025L50.2459 32.9894L50.2238 33.0171C47.3562 37.5986 43.3683 39.7617 40.5285 40.7711C37.4502 41.8638 35.0153 41.8749 34.9875 41.8749" fill="#076D38"/>
<path d="M40.3951 16.7998C40.3951 16.7998 38.2653 15.6184 34.0056 15.6184C29.3465 15.6184 27.6604 16.8941 27.6604 16.8941L22.4689 38.0041C25.6914 40.378 29.6682 41.7812 33.9834 41.7812C38.4372 41.7812 42.292 40.4722 45.5645 37.9541L40.4007 16.7998H40.3951Z" fill="white"/>
<path d="M33.9724 41.8821C29.7737 41.8821 25.7747 40.5676 22.4025 38.0883L22.3525 38.0495L22.3692 37.9884L27.5718 16.8452L27.5995 16.823C27.6716 16.7676 29.3689 15.5251 34.0057 15.5251H34.0168C38.2488 15.5251 40.423 16.7065 40.4452 16.7176L40.484 16.7398L40.4951 16.7787L45.6755 37.9995L45.6256 38.0384C42.3033 40.5953 38.3874 41.8876 33.978 41.8876M22.5744 37.9718C25.8967 40.4067 29.8403 41.6935 33.978 41.6935C38.3153 41.6935 42.1757 40.4234 45.4537 37.9219L40.3176 16.8729C40.0181 16.7176 37.8994 15.7248 34.0224 15.7248H34.0113C29.7516 15.7248 27.9878 16.8064 27.7493 16.9617L22.5799 37.9718H22.5744Z" fill="#076D38"/>
<path d="M40.933 16.3511C40.933 16.3511 37.9489 14.9756 33.9832 14.9756C30.0175 14.9756 27.0723 16.3511 27.0723 16.3511L27.6713 16.8226C27.6713 16.8226 29.9398 15.619 34.0109 15.6245C38.0765 15.6245 40.3617 16.7505 40.3617 16.7505L40.944 16.3567L40.933 16.3511Z" fill="#076D38"/>
<path d="M40.8555 16.2558L38.9919 7.81405H38.6147V8.524H38.293V8.79578H38.0545V8.70704H37.755V8.2966L37.5942 8.13575H37.3612V7.35369H37.0007V8.00818H36.7289L36.5792 8.15793V8.42417H36.3074V8.32433H36.1521V7.9749L36.0023 7.82515H35.7916V7.05973H35.3922V7.78077L35.0372 7.93608V8.24668H34.5381V7.88061L34.3828 7.72531H34.1775V6.95435H33.7948V7.74195H33.5896L33.3788 7.95271V8.21895H32.9407V7.84178L32.8242 7.72531H32.5635V7.07082H32.1863V7.82515H31.9922L31.7981 8.01927V8.26886H31.5152V8.40753H31.3044V8.15239L31.1769 8.02482H30.9439V7.36479H30.5945V8.1413H30.4004L30.2173 8.31878V8.71258H29.9289V8.7736H29.757V8.49072H29.3743V7.81405H28.9749L27.1779 16.3057C27.1779 16.3057 29.8735 14.9801 33.9889 14.9801C38.0989 14.9801 40.8611 16.2558 40.8611 16.2558" fill="white"/>
<path d="M27.0336 16.4785L28.8861 7.70949H29.4629V8.39171H29.8456V8.61357H30.1063V8.27523L30.3448 8.03673H30.4835V7.26023H31.0326V7.92026H31.2045L31.3875 8.10329V8.29742H31.4042V8.15876H31.6871V7.96463L31.9367 7.71504H32.0753V6.96071H32.6466V7.6152H32.8518L33.0238 7.78714V8.10329H33.2623V7.89807L33.5285 7.63184H33.6783V6.84424H34.2606V7.6152H34.4104L34.6212 7.82597V8.13657H34.9262V7.85925L35.2756 7.70394V6.94962H35.8747V7.71504H36.0244L36.2352 7.9258V8.21977H36.3905V8.31961H36.4681V8.10884L36.6789 7.89807H36.8897V7.24359H37.4499V8.02564H37.6274L37.8437 8.24195V8.59138H38.1432V8.68013H38.1875V8.40835H38.5092V7.6984H39.0639L40.9885 16.4119L40.8055 16.3287C40.8055 16.3287 38.0156 15.0586 33.9722 15.0586C29.9288 15.0586 27.2332 16.362 27.2055 16.3731L27.0225 16.4619L27.0336 16.4785ZM29.0469 7.90362L27.3053 16.1291C27.9765 15.8406 30.4835 14.8756 33.9778 14.8756C37.4776 14.8756 40.0345 15.8129 40.7168 16.0847L38.9086 7.90362H38.7089V8.61912H38.3928V8.89089H37.9601V8.80215H37.6551V8.33624L37.5552 8.23641H37.2668V7.45435H37.106V8.10884H36.7787L36.6844 8.20313V8.52483H36.213V8.42499H36.0577V8.01455L35.9634 7.92026H35.6972V7.15484H35.492V7.84261L35.137 7.99791V8.34179H34.4437V7.91471L34.3438 7.81487H34.0831V7.04391H33.8946V7.83151H33.6339L33.4841 7.98682V8.30851H32.8518V7.87589L32.7964 7.82042H32.4747V7.16593H32.2916V7.92026H32.0365L31.9034 8.05337V8.35843H31.6205V8.49709H31.2101V8.18649L31.138 8.11439H30.8495V7.45435H30.6942V8.23086H30.4391L30.3171 8.35288V8.80215H30.0287V8.86871H29.6626V8.58029H29.2799V7.90362H29.058H29.0469Z" fill="#076D38"/>
<path d="M34.8705 15.0755H33.1455V13.4836H34.8705V15.0755ZM33.3396 14.8814H34.6708V13.6778H33.3396V14.8814Z" fill="#076D38"/>
<path d="M40.1845 28.6246C40.1845 28.6246 37.7995 28.3306 34.0057 31.1372C34.0057 31.1372 30.7499 28.5248 27.9656 28.3362C27.9656 28.3362 32.8465 30.5991 33.5065 31.5809C33.5065 31.5809 32.5858 32.7124 32.2308 32.8399C32.2308 32.8399 31.6928 31.6474 31.1548 32.2298C31.1548 32.2298 30.8276 32.4683 31.1326 32.79C31.1326 32.79 31.4377 33.1173 31.654 32.9065L31.7927 33.0784C31.7927 33.0784 31.5985 33.3779 31.2436 33.4556C31.2436 33.4556 30.5336 33.0784 30.5225 33.9104C30.5225 33.9104 30.9385 34.8145 32.2807 33.6442C32.2807 33.6442 32.8909 34.3819 33.3346 34.2543C33.3346 34.2543 34.1776 33.9992 33.4843 33.4168C33.4843 33.4168 33.2514 33.2005 32.913 33.6164L32.6357 33.3779C32.6357 33.3779 33.8892 32.2132 33.978 32.1411C34.0667 32.069 35.2814 33.3724 35.2814 33.3724L35.1095 33.6053C35.1095 33.6053 34.6214 33.084 34.2608 33.7274C34.2608 33.7274 34.3884 34.7535 35.2592 34.0713L35.6918 33.6719C35.6918 33.6719 36.6958 34.6869 37.2615 34.2654C37.2615 34.2654 37.6941 33.8938 37.3946 33.5887C37.3946 33.5887 37.1617 33.2615 36.8122 33.5C36.8122 33.5 36.5682 33.5554 36.1688 33.1173L36.363 32.9065C36.363 32.9065 36.779 33.2504 37.0064 32.6791C37.0064 32.6791 37.1894 32.1577 36.3574 32.1633C36.3574 32.1633 36.0912 32.2853 35.825 32.9009L34.5715 31.6696C34.5715 31.6696 36.2742 29.8615 40.1956 28.6191" fill="#076D38"/>
<path d="M33.828 24.5318C33.828 24.5318 33.4453 25.0088 33.5562 25.6022C33.5562 25.6022 32.7797 24.7925 33.3842 23.8995C33.3842 23.8995 32.7852 23.9716 32.5578 25.2084C32.5578 25.2084 32.1307 24.1768 32.8906 23.2672C32.8906 23.2672 32.0864 23.7608 31.8756 24.4541C31.8756 24.4541 31.8146 23.2172 32.9183 22.7513C32.9183 22.7513 32.3082 22.7347 31.9422 23.0065C31.9422 23.0065 32.2639 22.0414 33.5118 22.3187C33.5118 22.3187 33.057 21.7363 32.7575 21.7474C32.7575 21.7474 33.5728 21.642 33.9611 22.0414C33.9611 22.0414 33.9167 21.7086 34.1441 21.52C34.1441 21.52 34.366 21.9748 34.4991 22.0691C34.4991 22.0691 35.0094 21.6864 35.4753 21.8195C35.4753 21.8195 35.026 22.1357 34.9539 22.3298C34.9539 22.3298 36.2407 22.2965 36.4348 23.245C36.4348 23.245 35.6805 22.6903 35.2701 22.8401C35.2701 22.8401 36.4182 23.2616 36.5347 24.5262C36.5347 24.5262 35.8025 23.4336 35.4087 23.3725C35.4087 23.3725 36.0965 24.5096 35.686 25.1973C35.686 25.1973 35.4032 23.966 35.0371 23.7885C35.0371 23.7885 35.209 25.1585 34.7764 25.5911C34.7764 25.5911 34.6045 24.615 34.2717 24.4763L34.2162 28.4642C34.2495 28.797 34.3438 28.9079 34.3438 28.9079C34.305 29.1132 34.3382 29.2907 34.3382 29.2907C34.4325 29.4238 34.4381 29.5125 34.4381 29.5125C34.4935 29.7344 34.4325 29.8952 34.4325 29.8952C34.5102 30.1171 34.671 30.289 34.671 30.289L33.3288 30.3389C33.4397 30.2668 33.6006 29.7898 33.6006 29.7898C33.5229 29.5458 33.6893 29.2019 33.6893 29.2019C33.6782 28.9801 33.8668 28.4587 33.8668 28.4587L33.8335 24.5373L33.828 24.5318Z" fill="#076D38"/>
<path d="M33.9716 42.1143C23.1116 42.1143 14.2816 33.2787 14.2871 22.4242C14.2871 11.5698 23.1227 2.73975 33.9827 2.73975C44.8372 2.73975 53.6672 11.5753 53.6672 22.4298C53.6672 33.2843 44.8316 42.1198 33.9772 42.1143M33.9827 3.26112C23.4166 3.26112 14.814 11.8526 14.814 22.4242C14.814 32.9903 23.4111 41.5929 33.9772 41.5929C44.5432 41.5929 53.1458 32.9959 53.1458 22.4298C53.1458 11.8582 44.5488 3.26112 33.9827 3.26112Z" fill="white"/>
</g>
<defs>
<clipPath id="clip0_54_125">
<rect width="68" height="68" fill="white"/>
</clipPath>
</defs>
</svg>
