<svg width="54" height="53" viewBox="0 0 54 53" fill="none" xmlns="http://www.w3.org/2000/svg">
<path fill-rule="evenodd" clip-rule="evenodd" d="M53.4844 26.4643C53.4844 41.0801 41.4734 52.9286 26.6571 52.9286C-8.89057 51.6312 -8.88093 1.2921 26.6574 0C41.4734 0 53.4844 11.8485 53.4844 26.4643Z" fill="#FFF4EE"/>
<g clip-path="url(#clip0_54_266)">
<path d="M16.1562 19.2265C15.8109 19.5611 15.8109 20.1032 16.1562 20.4377L17.9246 22.1509C18.27 22.4855 18.8296 22.4855 19.175 22.1509C19.5203 21.8163 19.5203 21.2742 19.175 20.9396L17.4066 19.2265C17.0611 18.8919 16.5016 18.8919 16.1562 19.2265Z" fill="#E77A45"/>
<path d="M35.6089 22.1508C35.9543 22.4854 36.5139 22.4854 36.8592 22.1508L38.6276 20.4377C38.973 20.1031 38.973 19.561 38.6276 19.2265C38.2823 18.8919 37.7227 18.8919 37.3773 19.2265L35.6089 20.9396C35.2635 21.2742 35.2635 21.8163 35.6089 22.1508Z" fill="#E77A45"/>
<path d="M27.392 27.5425C30.8045 27.5425 33.5815 24.8523 33.5815 21.5465C33.5815 18.5339 31.2678 16.0572 28.2762 15.6371V7.78426C28.2762 7.3108 27.8808 6.92769 27.392 6.92769C26.9033 6.92769 26.5078 7.3108 26.5078 7.78426V15.6371C23.5163 16.0572 21.2026 18.5339 21.2026 21.5465C21.2026 24.8523 23.9796 27.5425 27.392 27.5425Z" fill="#E77A45"/>
<path d="M22.9716 28.4002C22.9716 28.1727 22.8784 27.9552 22.7125 27.7946L20.9441 26.0815C20.7784 25.9208 20.5538 25.8305 20.319 25.8305H19.1456L18.6516 24.6518C18.5161 24.329 18.1923 24.1173 17.8322 24.1173H13.1864C12.6977 24.1173 12.3022 24.5005 12.3022 24.9739V29.2568H22.9716V28.4002Z" fill="#E77A45"/>
<path d="M42.4834 24.9739C42.4834 24.5005 42.088 24.1174 41.5992 24.1174H36.2351C35.875 24.1174 35.5512 24.329 35.4157 24.6519L34.9218 25.8305H33.7483C33.5135 25.8305 33.2889 25.9208 33.1232 26.0815L31.3548 27.7946C31.189 27.9552 31.0957 28.1727 31.0957 28.4002V29.2568H42.4834V24.9739Z" fill="#E77A45"/>
<path d="M21.2026 30.9681H33.5815V36.1646H21.2026V30.9681Z" fill="#E77A45"/>
<path d="M41.5982 36.1646C42.0869 36.1646 42.4824 35.7815 42.4824 35.3081V30.9681H35.3499V36.1646H41.5982Z" fill="#E77A45"/>
<path d="M13.1864 36.1646H19.4348V30.9681H12.3022V35.3081C12.3022 35.7815 12.6977 36.1646 13.1864 36.1646Z" fill="#E77A45"/>
</g>
<defs>
<clipPath id="clip0_54_266">
<rect width="30.1807" height="35.9807" fill="white" transform="translate(12.4844)"/>
</clipPath>
</defs>
</svg>
