<svg width="54" height="54" viewBox="0 0 54 54" fill="none" xmlns="http://www.w3.org/2000/svg">
<path fill-rule="evenodd" clip-rule="evenodd" d="M54 26.9885C54 41.8938 41.8732 53.9769 26.9141 53.9769C-8.97627 52.6539 -8.96654 1.31769 26.9144 0C41.8732 0 54 12.0831 54 26.9885Z" fill="#FFF4EE"/>
<path d="M10.4459 23.6113L12.7954 21.2703C13.1633 20.9036 13.8143 20.9055 14.1804 21.2703C14.5475 21.6379 15.207 21.6379 15.574 21.2703C15.9526 20.8931 15.9526 20.2568 15.574 19.8798C15.1926 19.4988 15.1926 18.8817 15.575 18.5006L19.7253 14.3653C23.2193 10.8849 28.8186 11.0263 32.1695 14.3653C32.5518 14.7462 32.5519 15.3634 32.1695 15.7443C31.7871 16.1252 31.1677 16.1253 30.7855 15.7443C29.632 14.595 27.7671 14.6296 26.6495 15.7443C26.0894 16.3024 25.7806 17.0349 25.7806 17.8053C25.7806 18.5882 26.0894 19.3273 26.6495 19.8854C26.834 20.0702 26.9372 20.3207 26.9353 20.5816C26.9334 20.8425 26.8264 21.0921 26.639 21.274L22.4697 25.4094C22.0864 25.7798 21.4746 25.778 21.0951 25.3998C20.7262 25.0322 20.0886 25.0313 19.7197 25.4008C19.5352 25.5837 19.4339 25.8265 19.4339 26.0846C19.4339 26.3437 19.5352 26.5866 19.7197 26.7694C20.1011 27.1494 20.102 27.7647 19.7226 28.1466L17.3731 30.5076C16.9907 30.8906 16.37 30.8929 15.9862 30.5104L10.446 24.9902C10.0635 24.6094 10.0635 23.9922 10.4459 23.6113ZM28.0288 22.6457L42.5834 37.1479C43.6437 38.2044 43.7994 40.0048 42.5834 41.2767C41.4404 42.4156 39.5828 42.4157 38.4388 41.2777L23.8668 26.7755L28.0201 22.6561C28.0234 22.6529 28.0256 22.6489 28.0288 22.6457Z" fill="#E77A45"/>
</svg>
