<svg width="54" height="54" viewBox="0 0 54 54" fill="none" xmlns="http://www.w3.org/2000/svg">
<path fill-rule="evenodd" clip-rule="evenodd" d="M54 26.7194C54 41.4762 41.8732 53.4388 26.9141 53.4388C-8.97627 52.129 -8.96654 1.30455 26.9144 0C41.8732 0 54 11.9627 54 26.7194Z" fill="#FFF4EE"/>
<path d="M27.1456 13.0602C27.3139 13.1768 26.7875 12.9269 26.5031 12.9619C26.2219 12.9628 25.9456 13.0342 25.7001 13.1694C25.4695 13.299 25.2747 13.4823 25.1326 13.7033C24.9906 13.9243 24.9056 14.1763 24.8852 14.4372C24.8647 14.6981 24.9095 14.96 25.0154 15.1998C25.1214 15.4397 25.2854 15.6504 25.493 15.8133C25.7007 15.9763 25.9457 16.0865 26.2065 16.1345C26.4674 16.1824 26.7363 16.1666 26.9895 16.0884C27.2427 16.0102 27.4727 15.872 27.6592 15.6859C27.8457 15.4997 27.9832 15.2714 28.0595 15.0208C28.1643 14.6402 28.1303 14.2354 27.9632 13.877C27.7962 13.5187 27.5068 13.2296 27.1456 13.0602ZM25.2791 16.965C24.9033 17.8687 20.9891 27.1805 20.4993 28.3462L19.8291 27.1993L24.4095 16.2823C24.6502 16.5648 24.9459 16.797 25.2791 16.965ZM26.0379 11.9133V10.4552C26.0396 10.3339 26.0896 10.2181 26.1772 10.1329C26.2648 10.0478 26.3829 10 26.5059 10C26.6289 10 26.747 10.0478 26.8346 10.133C26.9222 10.2182 26.9722 10.3339 26.9739 10.4552V11.9133C26.6647 11.8547 26.3471 11.8547 26.0379 11.9133ZM32.4129 28.3462C31.9149 27.1607 28.0327 17.9149 27.6496 17.0032C27.99 16.8511 28.2925 16.6275 28.5358 16.3479L29.6934 19.1112L33.083 27.1993L32.4129 28.3462ZM14.1686 15.758C14.5788 15.181 15.1899 14.7728 15.8855 14.6111C15.9072 14.6313 15.9239 14.656 15.9345 14.6834C15.945 14.7109 15.9491 14.7403 15.9465 14.7696V33.4087C15.0816 33.3236 14.2177 33.5788 13.5427 34.1187V17.6422C13.543 16.9645 13.7622 16.3045 14.1686 15.758ZM15.5145 38.3894H42.2162C42.2438 38.3885 42.2701 38.3772 42.2896 38.358C42.3091 38.3387 42.3205 38.3128 42.3214 38.2856V19.5536C42.322 19.5396 42.3197 19.5256 42.3147 19.5124C42.3097 19.4993 42.3021 19.4872 42.2923 19.477C42.2824 19.4669 42.2707 19.4587 42.2576 19.4531C42.2445 19.4475 42.2305 19.4445 42.2162 19.4444H31.0337L34.2129 27.03C34.246 27.1071 34.2602 27.1907 34.2545 27.2742C34.2487 27.3577 34.2231 27.4387 34.1797 27.5106L32.8116 29.848C32.7592 29.935 32.6835 30.0061 32.5927 30.0534C32.502 30.1008 32.3998 30.1225 32.2973 30.1163C32.1949 30.1101 32.0961 30.0762 32.012 30.0182C31.9278 29.9603 31.8615 29.8806 31.8202 29.7879L27.4779 19.4444H25.4342L21.0919 29.7879C21.0515 29.8806 20.9857 29.9605 20.902 30.0186C20.8183 30.0767 20.7199 30.1107 20.6177 30.1169C20.5155 30.1232 20.4136 30.1013 20.3233 30.0539C20.2329 30.0064 20.1577 29.9351 20.106 29.848L18.7324 27.5106C18.689 27.4387 18.6634 27.3577 18.6576 27.2742C18.6519 27.1907 18.6661 27.1071 18.6992 27.03L21.8784 19.4444H17.0542V33.9549C17.0545 34.0266 17.0403 34.0978 17.0126 34.1642C16.9848 34.2305 16.944 34.2908 16.8925 34.3416C16.8411 34.3923 16.7799 34.4326 16.7126 34.4599C16.6453 34.4873 16.5731 34.5012 16.5003 34.501H15.5145C14.9947 34.5057 14.4979 34.7127 14.132 35.0768C13.7662 35.4409 13.5609 35.9327 13.5609 36.4452C13.5609 36.9577 13.7662 37.4495 14.132 37.8136C14.4979 38.1777 14.9947 38.3846 15.5145 38.3894ZM36.4948 21.2629C36.4941 21.191 36.5079 21.1197 36.5355 21.0531C36.5631 20.9865 36.6039 20.926 36.6554 20.8752C36.707 20.8243 36.7684 20.7841 36.8359 20.7569C36.9034 20.7298 36.9758 20.7161 37.0487 20.7168H40.3054C40.3783 20.7161 40.4507 20.7298 40.5182 20.7569C40.5857 20.7841 40.6471 20.8243 40.6987 20.8752C40.7502 20.9261 40.791 20.9865 40.8186 21.0531C40.8462 21.1197 40.86 21.191 40.8593 21.2629V36.4342C40.8595 36.506 40.8454 36.5772 40.8176 36.6435C40.7899 36.7099 40.7491 36.7702 40.6976 36.821C40.6461 36.8717 40.585 36.912 40.5177 36.9393C40.4503 36.9667 40.3782 36.9806 40.3054 36.9804H37.0487C36.9759 36.9806 36.9038 36.9667 36.8364 36.9393C36.7691 36.912 36.708 36.8717 36.6565 36.821C36.605 36.7702 36.5642 36.7099 36.5365 36.6435C36.5087 36.5772 36.4946 36.506 36.4948 36.4342V21.2629ZM39.7515 35.8881H37.6025V35.0471C38.0772 35.0312 38.846 35.1951 38.8764 34.5009C38.876 34.3562 38.8175 34.2176 38.7137 34.1153C38.6099 34.0129 38.4693 33.9553 38.3225 33.9548H37.6025V32.7862H38.0401C38.1129 32.7864 38.1851 32.7724 38.2525 32.7451C38.3199 32.7177 38.3812 32.6775 38.4328 32.6268C38.4844 32.576 38.5254 32.5158 38.5533 32.4494C38.5812 32.383 38.5956 32.3119 38.5956 32.24C38.5956 32.1682 38.5812 32.097 38.5533 32.0306C38.5254 31.9643 38.4844 31.904 38.4328 31.8533C38.3812 31.8025 38.3199 31.7623 38.2525 31.735C38.1851 31.7076 38.1129 31.6937 38.0401 31.6939H37.6025V30.5252H38.3226C38.4676 30.5224 38.6057 30.4636 38.7072 30.3615C38.8087 30.2594 38.8656 30.1221 38.8656 29.9791C38.8656 29.8361 38.8087 29.6988 38.7072 29.5966C38.6056 29.4945 38.4675 29.4358 38.3225 29.4329H37.6025V28.2642H38.0401C38.1129 28.2645 38.1851 28.2505 38.2525 28.2231C38.3199 28.1958 38.3812 28.1556 38.4328 28.1049C38.4844 28.0541 38.5254 27.9939 38.5533 27.9275C38.5812 27.8611 38.5956 27.79 38.5956 27.7181C38.5956 27.6463 38.5812 27.5751 38.5533 27.5087C38.5254 27.4424 38.4844 27.3821 38.4328 27.3314C38.3812 27.2806 38.3199 27.2404 38.2525 27.2131C38.1851 27.1857 38.1129 27.1718 38.0401 27.172H37.6025V26.0033H38.3226C38.468 26.0011 38.6067 25.9426 38.7087 25.8404C38.8107 25.7382 38.8679 25.6006 38.8679 25.4572C38.8679 25.3138 38.8107 25.1762 38.7087 25.074C38.6067 24.9718 38.468 24.9133 38.3226 24.9111H37.6025V23.7424H38.0401C38.187 23.7424 38.3278 23.6848 38.4317 23.5824C38.5356 23.48 38.5939 23.3411 38.5939 23.1962C38.5939 23.0514 38.5356 22.9125 38.4317 22.8101C38.3278 22.7076 38.187 22.6501 38.0401 22.6501H37.6025V21.8091H39.7515V35.8881Z" fill="#E77A45"/>
</svg>
