<svg width="54" height="54" viewBox="0 0 54 54" fill="none" xmlns="http://www.w3.org/2000/svg">
<path fill-rule="evenodd" clip-rule="evenodd" d="M54 26.7194C54 41.4762 41.8732 53.4388 26.9141 53.4388C-8.97627 52.1289 -8.96654 1.30455 26.9144 0C41.8732 0 54 11.9627 54 26.7194Z" fill="#FFF4EE"/>
<path d="M14.715 16.6998V21.1557H10.1572V16.6998H14.715ZM10.1572 22.451V26.9069H20.5749V22.451H10.1572ZM21.8771 22.451V26.9069H32.2948V22.451H21.8771ZM33.597 22.451V26.9069H44.0146V22.451H33.597ZM16.0172 16.6998V21.1557H26.4348V16.6998H16.0172ZM27.737 16.6998V21.1557H38.1547V16.6998H27.737ZM10.2354 28.2023V32.6582H14.715V28.2023H10.2354ZM10.1572 33.9535V38.4094H20.5749V33.9535H10.1572ZM21.8771 33.9535V38.4094H32.2948V33.9535H21.8771ZM33.597 33.9535V38.4094H44.0146V33.9535H33.597ZM16.0172 28.2023V32.6582H26.4348V28.2023H16.0172ZM27.737 28.2023V32.6582H38.1547V28.2023H27.737Z" fill="#E77A45"/>
</svg>
