<svg width="54" height="54" viewBox="0 0 54 54" fill="none" xmlns="http://www.w3.org/2000/svg">
<g clip-path="url(#clip0_54_303)">
<path d="M27 54C41.9117 54 54 41.9117 54 27C54 12.0883 41.9117 0 27 0C12.0883 0 0 12.0883 0 27C0 41.9117 12.0883 54 27 54Z" fill="#FFF4EE"/>
<path d="M27.8607 20.4899C27.8607 21.5281 28.7057 22.3731 29.7438 22.3731V18.6068C28.7057 18.6068 27.8607 19.4518 27.8607 20.4899ZM31.6269 28.0225C32.6651 28.0225 33.5101 27.1775 33.5101 26.1394C33.5101 25.1012 32.6651 24.2562 31.6269 24.2562V28.0225ZM30.6854 11.0742C23.9363 11.0742 18.445 16.5654 18.445 23.3146C18.445 26.3509 19.5629 29.1267 21.4003 31.2683L20.1203 32.5483L19.4546 31.8826C19.0868 31.5148 18.4909 31.5148 18.1231 31.8826L11.35 38.6557C10.9823 39.0234 10.9823 39.6193 11.35 39.9871L14.0129 42.65C14.3807 43.0178 14.9766 43.0178 15.3444 42.65L22.1175 35.8769C22.4852 35.5091 22.4852 34.9132 22.1175 34.5454L21.4517 33.8797L22.7317 32.5998C24.8734 34.4371 27.6491 35.555 30.6854 35.555C37.4346 35.555 42.9258 30.0638 42.9258 23.3146C42.9258 16.5654 37.4346 11.0742 30.6854 11.0742ZM35.3932 26.1394C35.3932 28.2165 33.7041 29.9057 31.6269 29.9057V30.8472C31.6269 31.3677 31.2058 31.7887 30.6854 31.7887C30.1649 31.7887 29.7439 31.3676 29.7439 30.8472V29.9057C27.6668 29.9057 25.9776 28.2166 25.9776 26.1394C25.9776 25.6189 26.3988 25.1978 26.9191 25.1978C27.4395 25.1978 27.8607 25.6189 27.8607 26.1394C27.8607 27.1775 28.7057 28.0225 29.7438 28.0225V24.2562C27.6667 24.2562 25.9775 22.567 25.9775 20.4899C25.9775 18.4127 27.6667 16.7237 29.7438 16.7237V15.7821C29.7438 15.2616 30.1649 14.8406 30.6853 14.8406C31.2057 14.8406 31.6268 15.2618 31.6268 15.7821V16.7237C33.704 16.7237 35.3931 18.4127 35.3931 20.4899C35.3931 21.0104 34.972 21.4315 34.4516 21.4315C33.9312 21.4315 33.5101 21.0103 33.5101 20.4899C33.5101 19.4518 32.6651 18.6068 31.6269 18.6068V22.3731C33.7041 22.3731 35.3932 24.0622 35.3932 26.1394Z" fill="#E77A45"/>
</g>
<defs>
<clipPath id="clip0_54_303">
<rect width="54" height="54" fill="white"/>
</clipPath>
</defs>
</svg>
