<svg width="54" height="54" viewBox="0 0 54 54" fill="none" xmlns="http://www.w3.org/2000/svg">
<g clip-path="url(#clip0_54_326)">
<path d="M27 54C41.9117 54 54 41.9117 54 27C54 12.0883 41.9117 0 27 0C12.0883 0 0 12.0883 0 27C0 41.9117 12.0883 54 27 54Z" fill="#FFF4EE"/>
<g clip-path="url(#clip1_54_326)">
<path d="M35.0683 19.8215V18.9316C35.0683 16.4783 33.073 14.4822 30.6189 14.4822C28.1647 14.4822 26.1694 16.4783 26.1694 18.9316V19.8215C25.1718 19.8215 24.3896 20.6037 24.3896 21.6013V26.0508C24.3896 29.4852 27.1844 32.28 30.6189 32.28C34.0533 32.28 36.8481 29.4852 36.8481 26.0508V21.6013C36.8481 20.6037 36.066 19.8215 35.0683 19.8215ZM31.5088 19.8215H29.729V18.9316C29.729 18.4407 30.1287 18.0417 30.6189 18.0417C31.109 18.0417 31.5088 18.4407 31.5088 18.9316V19.8215ZM22.4395 30.303L20.0045 32.7371C19.6569 33.0847 19.6569 33.6479 20.0045 33.9955C20.3521 34.3432 20.9152 34.3431 21.2628 33.9955L23.6979 31.5614C24.0455 31.2138 24.0455 30.6506 23.6979 30.303C23.3503 29.9554 22.7871 29.9553 22.4395 30.303Z" fill="#FFF4EE"/>
<path d="M30.6189 17.1519C29.64 17.1519 28.8391 17.9528 28.8391 18.9316V20.7114H32.3986V18.9316C32.3986 17.9528 31.5977 17.1519 30.6189 17.1519ZM30.6189 11.8125C24.2472 11.8125 19.0502 17.0094 19.0502 23.3811C19.0502 29.7527 24.2472 34.9497 30.6189 34.9497C36.9905 34.9497 42.1875 29.7527 42.1875 23.3811C42.1875 17.0094 36.9905 11.8125 30.6189 11.8125ZM35.9582 26.0508C35.9582 28.9874 33.5556 31.3901 30.6189 31.3901C27.6821 31.3901 25.2795 28.9874 25.2795 26.0508V21.6013C25.2795 21.1029 25.671 20.7114 26.1694 20.7114H27.0593V18.9316C27.0593 16.9738 28.6611 15.3721 30.6189 15.3721C32.5766 15.3721 34.1784 16.9738 34.1784 18.9316V20.7114H35.0683C35.5667 20.7114 35.9582 21.1029 35.9582 21.6013V26.0508ZM20.0044 31.4788C19.6569 31.1312 19.0937 31.1312 18.7461 31.4788L12.0732 38.1517C11.7256 38.4993 11.7256 39.0625 12.0732 39.4101L14.5899 41.9268C14.9376 42.2744 15.5007 42.2744 15.8483 41.9268L22.5212 35.2539C22.8688 34.9063 22.8688 34.3431 22.5212 33.9955L20.0044 31.4788ZM30.6189 24.271C30.127 24.271 29.729 24.669 29.729 25.1609V26.9407C29.729 27.4325 30.127 27.8306 30.6189 27.8306C31.1107 27.8306 31.5087 27.4325 31.5087 26.9407V25.1609C31.5087 24.669 31.1107 24.271 30.6189 24.271Z" fill="#E77B46"/>
</g>
</g>
<defs>
<clipPath id="clip0_54_326">
<rect width="54" height="54" fill="white"/>
</clipPath>
<clipPath id="clip1_54_326">
<rect width="30.375" height="30.375" fill="white" transform="translate(11.8125 11.8125)"/>
</clipPath>
</defs>
</svg>
