<svg width="291" height="384" viewBox="0 0 291 384" fill="none" xmlns="http://www.w3.org/2000/svg">
<g clip-path="url(#clip0_58_761)">
<path d="M171.113 127.406C179.27 116.576 187.176 106.108 195.062 95.6294C196.866 93.2351 198.76 90.901 200.433 88.4166C202.407 85.4914 201.886 82.3158 199.321 80.4525C196.926 78.7094 193.84 79.1402 191.605 81.5845C191.014 82.2256 190.513 82.9469 189.982 83.6481C182.156 94.0265 174.339 104.405 166.513 114.773C165.742 115.795 164.9 116.777 163.978 117.909C163.277 117.037 162.876 116.566 162.495 116.066C153.867 104.725 145.28 93.3653 136.602 82.0653C134.307 79.08 130.94 78.5792 128.405 80.5226C125.799 82.5161 125.479 85.7118 127.703 88.8373C129.517 91.3818 131.471 93.8161 133.365 96.3106C141.201 106.649 149.037 116.977 156.964 127.426C148.175 139.086 139.528 150.547 130.89 162.007C128.555 165.102 126.14 168.128 123.936 171.313C122.082 173.988 122.573 177.344 124.978 179.007C127.583 180.81 130.178 180.46 132.483 178.346C133.215 177.675 133.776 176.823 134.377 176.032C143.416 164.071 152.444 152.089 161.483 140.128C162.265 139.086 163.146 138.125 164.098 136.973C164.98 138.064 165.631 138.816 166.223 139.597C176.053 152.53 185.853 165.483 195.703 178.406C198.369 181.892 201.576 182.663 204.411 180.67C207.177 178.716 207.358 175.28 204.762 171.784C201.936 167.967 199.03 164.211 196.164 160.424C187.877 149.505 179.58 138.565 171.113 127.406Z" fill="black"/>
<path d="M29.9116 118.51C29.9116 125.502 29.8615 132.505 29.9317 139.497C29.9818 144.235 29.5709 149.094 30.4628 153.682C34.3308 173.557 57.5987 186.15 77.9106 179.648C94.5549 174.319 103.644 161.897 103.634 144.456C103.634 135.089 103.634 125.713 103.634 116.346C103.634 106.228 103.674 96.1002 103.584 85.9823C103.553 82.5662 101.429 80.4024 98.4129 80.2321C95.2163 80.0518 92.8314 82.1756 92.4406 85.6517C92.3103 86.7637 92.3805 87.8957 92.3805 89.0177C92.3805 108.382 92.2903 127.756 92.4205 147.121C92.4606 153.622 89.8853 158.701 85.1856 162.898C80.5661 167.026 75.0748 169.22 68.9822 170.041C55.9153 171.814 40.1928 160.214 40.9244 145.688C41.8964 126.494 41.1648 107.22 41.1548 87.9758C41.1548 82.8768 39.281 80.2822 35.6034 80.2221C31.8757 80.152 29.9217 82.7265 29.9116 87.7755C29.9016 98.0236 29.9116 108.262 29.9116 118.51Z" fill="black"/>
<path d="M149.027 348.056C156.894 348.056 164.77 348.126 172.636 348.036C183.308 347.916 191.335 340.082 191.475 329.784C191.615 319.235 183.759 311.091 172.866 310.971C157.134 310.8 141.392 310.82 125.649 310.961C114.817 311.061 106.62 319.265 106.69 329.554C106.76 339.932 114.977 347.926 125.789 348.036C133.535 348.116 141.281 348.056 149.027 348.056Z" fill="white"/>
<path d="M201.115 34.8718C204.091 34.9519 206.716 32.4976 206.796 29.5424C206.887 26.5671 204.442 24.0226 201.415 23.9525C198.349 23.8823 195.874 26.2165 195.794 29.2519C195.704 32.2972 198.058 34.7816 201.115 34.8718Z" fill="black"/>
<path d="M26.2041 384C23.6188 383.138 20.9132 382.527 18.4681 381.375C7.21494 376.086 1.09231 367.15 0.070203 354.748C-0.019983 353.626 0.010079 352.504 0.010079 351.372C5.8311e-05 245.144 5.8311e-05 138.906 0.010079 32.6575C0.010079 17.1901 8.14686 5.45937 21.9654 1.41221C25.2621 0.450502 28.8495 0.0598107 32.3067 0.0598107C89.705 -0.0203313 147.093 -0.0103135 204.492 0.00972196C223.691 0.0197397 236.798 13.0127 236.848 32.2268C236.929 62.4703 236.868 92.7239 236.868 122.967C236.868 146.088 236.878 169.209 236.848 192.34C236.848 193.823 236.828 195.366 236.468 196.788C235.766 199.563 233.742 201.036 230.946 200.885C228.01 200.725 226.076 199.032 225.715 195.977C225.545 194.494 225.605 192.981 225.605 191.479C225.605 138.485 225.615 85.4911 225.595 32.4973C225.595 21.5979 220.014 13.3433 210.254 11.9609C202.157 10.8088 193.81 11.3899 185.573 11.3799C184.971 11.3799 184.04 12.7723 183.829 13.6439C182.947 17.4105 182.356 21.2373 181.534 25.024C178.889 37.1154 168.818 45.7006 156.423 45.7908C131.04 45.9711 105.658 45.9711 80.2756 45.7808C68.0704 45.6906 58.1399 37.2457 55.3843 25.2444C54.3521 20.7565 53.5405 16.2184 52.6286 11.6904C43.8906 11.6904 35.2427 10.919 26.7953 11.9008C17.7867 12.9526 11.7242 20.9468 11.2733 30.0128C11.2332 30.8844 11.2432 31.766 11.2432 32.6375C11.2432 138.876 11.2432 245.114 11.2432 351.352C11.2432 362.572 17.1153 370.366 27.126 372.369C28.8195 372.71 30.6032 372.73 32.3468 372.73C89.7451 372.75 147.133 372.75 204.532 372.74C217.328 372.74 225.505 364.716 225.565 352.013C225.645 335.764 225.585 319.516 225.575 303.267C225.575 302.295 225.445 301.333 225.345 299.991C217.819 299.991 210.474 299.991 203.129 299.991C198.88 299.991 194.621 300.051 190.373 299.971C183.338 299.851 178.007 296.725 174.039 290.925C173.247 289.763 171.414 288.661 170.051 288.651C140.79 288.521 111.53 288.531 82.2697 288.621C81.0472 288.621 79.1833 289.292 78.6923 290.224C74.654 297.837 68.361 301.474 59.8535 301.564C59.5128 301.564 59.1721 301.734 58.5308 301.904C58.5308 307.244 58.3704 312.603 58.5809 317.933C58.7312 321.659 61.3466 323.803 65.435 323.863C71.6879 323.953 77.9408 323.863 84.1937 323.903C88.6128 323.923 91.1981 325.977 91.2382 329.413C91.2783 332.829 88.6128 335.093 84.3139 335.133C77.8105 335.183 71.3071 335.253 64.8037 335.113C54.7229 334.903 47.4379 327.51 47.2475 317.412C47.1573 312.303 47.2274 307.184 47.2274 301.904C44.7824 301.544 42.4275 301.413 40.1929 300.832C31.004 298.468 25.0217 290.354 25.8133 281.508C26.655 272.051 33.4991 265.009 43.109 264.388C49.5823 263.977 56.1158 264.027 62.5991 264.368C69.784 264.749 74.9446 268.555 78.3216 274.927C78.8527 275.928 80.1654 277.16 81.1374 277.181C89.8754 277.351 98.6134 277.281 107.712 277.281C107.792 275.868 107.923 274.676 107.923 273.484C107.943 265.861 107.883 258.237 107.943 250.613C108.033 240.095 115.338 232.692 125.92 232.602C139.929 232.481 153.927 232.521 167.936 232.612C170.401 232.622 171.794 232.261 172.856 229.506C175.793 221.893 181.795 217.735 189.912 217.685C217.418 217.515 244.935 217.515 272.442 217.675C282.773 217.735 290.82 226.02 290.94 236.048C291.06 246.206 282.994 254.621 272.482 254.851C262.111 255.081 251.729 254.911 241.348 254.921C239.995 254.921 238.642 254.921 237.049 254.921C237.049 257.536 237.049 259.84 237.049 262.555C238.382 262.615 239.704 262.725 241.027 262.725C251.028 262.735 261.038 262.695 271.039 262.745C282.462 262.805 290.88 270.679 290.94 281.258C291 292.027 282.553 299.931 270.879 299.971C260.878 300.001 250.867 299.981 240.867 299.981C239.644 299.981 238.422 299.981 236.808 299.981C236.808 301.684 236.808 303.016 236.808 304.359C236.808 319.606 236.808 334.853 236.808 350.1C236.798 368.222 228.782 378.72 211.306 383.529C211.085 383.589 210.925 383.819 210.735 383.97C149.268 384 87.731 384 26.2041 384ZM225.445 254.941C213.881 254.941 202.648 254.941 191.425 254.941C183.999 254.941 178.157 252.066 174.069 245.715C173.508 244.853 172.225 243.932 171.273 243.922C156.032 243.821 140.78 243.801 125.539 243.902C122.142 243.922 119.516 245.885 119.416 249.311C119.146 258.507 119.326 267.714 119.326 276.76C119.897 277.02 120.118 277.211 120.338 277.211C136.832 277.251 153.326 277.311 169.82 277.211C170.762 277.201 172.135 275.998 172.566 275.027C176.153 266.752 182.436 262.765 191.365 262.755C201.365 262.745 211.356 262.755 221.356 262.745C222.679 262.745 224.002 262.615 225.465 262.535C225.445 259.95 225.445 257.736 225.445 254.941ZM172.776 11.45C136.461 11.45 100.497 11.45 64.0321 11.45C65.0642 16.1583 65.5653 20.8166 67.1385 25.0741C69.2929 30.9445 73.9525 34.4808 80.3157 34.5208C105.698 34.6711 131.08 34.6511 156.463 34.5409C162.665 34.5108 168.267 30.3134 170.011 24.473C171.233 20.3257 171.834 15.978 172.776 11.45ZM231.427 228.895C218.05 228.895 204.662 228.855 191.284 228.915C185.322 228.945 181.755 233.102 183.078 238.252C183.989 241.788 186.976 243.691 191.866 243.691C218.13 243.711 244.384 243.711 270.648 243.671C272.121 243.671 274.065 243.771 274.967 242.94C276.841 241.187 279.266 238.913 279.406 236.729C279.546 234.535 277.552 231.81 275.769 230.027C274.697 228.955 272.261 228.945 270.438 228.935C257.431 228.855 244.434 228.895 231.427 228.895ZM231.427 288.751C244.805 288.751 258.182 288.791 271.57 288.731C276.42 288.711 279.777 285.525 279.727 281.298C279.677 277.191 276.47 274.255 271.77 274.015C271.019 273.975 270.267 274.005 269.516 274.005C244.003 274.005 218.501 274.005 192.988 274.015C191.615 274.015 190.222 273.995 188.88 274.245C184.551 275.047 182.075 278.904 183.027 283.161C183.819 286.667 186.775 288.741 191.274 288.751C204.672 288.771 218.05 288.751 231.427 288.751ZM52.7789 290.234C55.6548 290.234 58.5308 290.334 61.3967 290.214C65.7156 290.023 68.8721 286.828 68.8621 282.871C68.852 279.034 65.926 275.778 61.7273 275.618C55.8653 275.387 49.9831 275.387 44.121 275.618C39.8723 275.788 37.0665 278.964 37.0765 282.901C37.0865 286.938 40.1529 290.023 44.5319 290.214C47.2876 290.334 50.0332 290.234 52.7789 290.234Z" fill="#A2D2B9"/>
<path d="M171.113 127.406C179.58 138.555 187.877 149.495 196.184 160.434C199.05 164.221 201.956 167.977 204.782 171.794C207.378 175.29 207.197 178.726 204.431 180.68C201.596 182.673 198.389 181.902 195.724 178.416C185.873 165.493 176.073 152.54 166.243 139.607C165.641 138.826 165 138.075 164.118 136.983C163.156 138.135 162.285 139.096 161.503 140.138C152.464 152.099 143.436 164.071 134.397 176.042C133.796 176.833 133.235 177.695 132.503 178.356C130.198 180.47 127.603 180.82 124.998 179.017C122.593 177.354 122.102 173.998 123.956 171.323C126.16 168.138 128.575 165.112 130.91 162.017C139.548 150.557 148.196 139.096 156.984 127.436C149.057 116.987 141.221 106.649 133.385 96.3206C131.501 93.8362 129.537 91.3918 127.723 88.8473C125.499 85.7218 125.819 82.5261 128.425 80.5326C130.97 78.5892 134.337 79.0901 136.622 82.0753C145.3 93.3754 153.887 104.735 162.515 116.076C162.886 116.566 163.297 117.047 163.998 117.919C164.92 116.787 165.762 115.815 166.533 114.783C174.359 104.415 182.186 94.0265 190.002 83.6581C190.533 82.9569 191.034 82.2356 191.625 81.5945C193.86 79.1502 196.946 78.7094 199.341 80.4625C201.896 82.3258 202.427 85.5014 200.453 88.4266C198.78 90.911 196.886 93.2451 195.082 95.6394C187.166 106.108 179.27 116.586 171.113 127.406Z" fill="#076D38"/>
<path d="M29.9117 118.51C29.9117 108.262 29.9016 98.0136 29.9117 87.7755C29.9217 82.7265 31.8757 80.152 35.6034 80.2221C39.281 80.2922 41.1548 82.8768 41.1548 87.9758C41.1649 107.22 41.8863 126.494 40.9244 145.688C40.1929 160.214 55.9153 171.814 68.9822 170.041C75.0748 169.22 80.5661 167.026 85.1856 162.898C89.8853 158.701 92.4606 153.622 92.4205 147.121C92.2903 127.756 92.3805 108.382 92.3805 89.0177C92.3805 87.8957 92.3103 86.7537 92.4406 85.6517C92.8414 82.1756 95.2263 80.0518 98.4129 80.2321C101.429 80.4024 103.553 82.5763 103.584 85.9823C103.674 96.1002 103.634 106.228 103.634 116.346C103.634 125.713 103.634 135.089 103.634 144.456C103.634 161.897 94.5549 174.319 77.9106 179.648C57.5987 186.15 34.3308 173.557 30.4628 153.682C29.5709 149.094 29.9718 144.235 29.9317 139.497C29.8615 132.505 29.9117 125.512 29.9117 118.51Z" fill="#076D38"/>
<path d="M201.115 34.8718C198.068 34.7917 195.704 32.2972 195.794 29.2519C195.874 26.2165 198.359 23.8823 201.415 23.9525C204.442 24.0226 206.887 26.5671 206.796 29.5424C206.706 32.4976 204.091 34.9519 201.115 34.8718Z" fill="#076D38"/>
<path d="M118.144 29.4221C114.646 29.4221 111.139 29.5123 107.642 29.4021C103.984 29.2819 101.76 27.2082 101.65 24.0526C101.529 20.7768 103.874 18.3124 107.622 18.2523C114.867 18.1321 122.122 18.1221 129.367 18.2623C132.974 18.3325 135.129 20.6366 135.139 23.8522C135.149 27.128 133.054 29.2618 129.387 29.3921C125.649 29.5123 121.891 29.4121 118.144 29.4221Z" fill="#076D38"/>
</g>
<defs>
<clipPath id="clip0_58_761">
<rect width="291" height="384" fill="white"/>
</clipPath>
</defs>
</svg>
