<svg width="54" height="54" viewBox="0 0 54 54" fill="none" xmlns="http://www.w3.org/2000/svg">
<path d="M27 53.619C41.9117 53.619 54 41.616 54 26.8095C54 12.003 41.9117 0 27 0C12.0883 0 0 12.003 0 26.8095C0 41.616 12.0883 53.619 27 53.619Z" fill="#FFF4EE"/>
<path d="M30.6854 16.6055C27.0515 16.6055 24.0944 19.5418 24.0944 23.15C24.0944 24.617 24.6008 25.9584 25.4252 27.0511L34.6142 17.9269C33.5138 17.1083 32.1628 16.6055 30.6854 16.6055ZM26.7566 28.3731C27.8571 29.1917 29.208 29.6945 30.6854 29.6945C34.3192 29.6945 37.2764 26.7582 37.2764 23.15C37.2764 21.683 36.7699 20.3416 35.9457 19.2489L26.7566 28.3731ZM30.6854 10.996C23.9363 10.996 18.445 16.4485 18.445 23.15C18.445 26.1649 19.5629 28.9211 21.4003 31.0476L20.1203 32.3185L19.4546 31.6575C19.0868 31.2923 18.4909 31.2923 18.1231 31.6575L11.35 38.3828C10.9823 38.748 10.9823 39.3397 11.35 39.7049L14.0129 42.349C14.3807 42.7141 14.9765 42.7141 15.3444 42.349L22.1175 35.6236C22.4852 35.2585 22.4852 34.6668 22.1175 34.3016L21.4517 33.6406L22.7317 32.3696C24.8734 34.1941 27.6491 35.304 30.6854 35.304C37.4346 35.304 42.9258 29.8515 42.9258 23.15C42.9258 16.4485 37.4346 10.996 30.6854 10.996ZM30.6854 31.5644C26.0245 31.5644 22.2113 27.7897 22.2113 23.1501C22.2113 18.5102 26.0125 14.7358 30.6854 14.7358C35.3463 14.7358 39.1595 18.5105 39.1595 23.1501C39.1595 27.7899 35.3583 31.5644 30.6854 31.5644Z" fill="#E77B46"/>
</svg>
