<svg width="54" height="54" viewBox="0 0 54 54" fill="none" xmlns="http://www.w3.org/2000/svg">
<g clip-path="url(#clip0_54_311)">
<path d="M27 54C41.9117 54 54 41.9117 54 27C54 12.0883 41.9117 0 27 0C12.0883 0 0 12.0883 0 27C0 41.9117 12.0883 54 27 54Z" fill="#FFF4EE"/>
<path d="M30.6854 11.0742C23.9363 11.0742 18.445 16.5654 18.445 23.3146C18.445 26.3509 19.5629 29.1267 21.4003 31.2683L20.1203 32.5483L19.4546 31.8826C19.0868 31.5148 18.4909 31.5148 18.1231 31.8826L11.35 38.6557C10.9823 39.0234 10.9823 39.6193 11.35 39.9871L14.0129 42.65C14.3807 43.0178 14.9766 43.0178 15.3444 42.65L22.1175 35.8769C22.4852 35.5091 22.4852 34.9132 22.1175 34.5454L21.4517 33.8797L22.7317 32.5998C24.8734 34.4371 27.6491 35.555 30.6854 35.555C37.4346 35.555 42.9258 30.0638 42.9258 23.3146C42.9258 16.5654 37.4346 11.0742 30.6854 11.0742ZM38.218 24.2562H34.4517C34.0462 24.2562 33.6866 23.9969 33.5589 23.6126L32.5686 20.6426L29.6951 29.262C29.5672 29.6463 29.2077 29.9057 28.8023 29.9057C28.3969 29.9057 28.0372 29.6464 27.9095 29.262L26.2405 24.2562H23.1528C22.6324 24.2562 22.2113 23.8351 22.2113 23.3146C22.2113 22.7942 22.6325 22.3731 23.1528 22.3731H26.9191C27.3247 22.3731 27.6842 22.6323 27.8119 23.0168L28.8023 25.9868L31.6758 17.3673C31.9314 16.5986 33.2058 16.5986 33.4615 17.3673L35.1304 22.3731H38.2181C38.7386 22.3731 39.1596 22.7942 39.1596 23.3146C39.1595 23.8351 38.7384 24.2562 38.218 24.2562Z" fill="#E77A45"/>
</g>
<defs>
<clipPath id="clip0_54_311">
<rect width="54" height="54" fill="white"/>
</clipPath>
</defs>
</svg>
