<svg width="29" height="29" viewBox="0 0 29 29" fill="none" xmlns="http://www.w3.org/2000/svg">
<path d="M27.9453 21.6641L26.6328 27.1875C26.4688 28.0078 25.8125 28.5547 24.9922 28.5547C11.2109 28.5 0 17.2891 0 3.50781C0 2.6875 0.492188 2.03125 1.3125 1.86719L6.83594 0.554688C7.60156 0.390625 8.42188 0.828125 8.75 1.53906L11.3203 7.5C11.5938 8.21094 11.4297 9.03125 10.8281 9.46875L7.875 11.875C9.73438 15.6484 12.7969 18.7109 16.625 20.5703L19.0312 17.6172C19.4688 17.0703 20.2891 16.8516 21 17.125L26.9609 19.6953C27.6719 20.0781 28.1094 20.8984 27.9453 21.6641Z" fill="white"/>
</svg>
